{"title":"The.Noite.2018.10.12.720p.WEB-DL.x264-Skylane77","magnet":"magnet:?xt=urn:btih:1d2210ccfa4e9b233409f3f24abe623c788b1397&dn=The.Noite.2018.10.12.720p.WEB-DL.x264-Skylane77&tr=udp%3A%2F%2Ftracker.leechers-paradise.org%3A6969&tr=udp%3A%2F%2Fzer0day.ch%3A1337&tr=udp%3A%2F%2Fopen.demonii.com%3A1337&tr=udp%3A%2F%2Ftracker.coppersurfer.tk%3A6969&tr=udp%3A%2F%2Fexodus.desync.com%3A6969","uploader":"beechbaron77","categoryP":"video","categoryS":"hd___tv_shows","size":"316573448","seeders":"2","leechers":"0","description":"Lord Vinheteiro; LC Galetto\r\n <a href=\"\nhttps://postimg.cc/RWQH1NXz\" rel=\"nofollow\" target=\"_NEW\">\nhttps://postimg.cc/RWQH1NXz</a>\r\n\r\n--\r\nVideo\r\nID: 1\r\nFormat: AVC\r\nFormat/Info: Advanced Video Codec\r\nFormat profile: Main@L3.1\r\nFormat settings: CABAC / 3 Ref Frames\r\nFormat settings, CABAC: Yes\r\nFormat settings, ReFrames: 3 frames\r\nCodec ID: avc1\r\nCodec ID/Info: Advanced Video Coding\r\nDuration: 46 min 57 s\r\nBit rate: 764 kb/s\r\nWidth: 1 280 pixels\r\nHeight: 720 pixels\r\nDisplay aspect ratio: 16:9\r\nFrame rate mode: Constant\r\nFrame rate: 30.000 FPS\r\nColor space: YUV\r\nChroma subsampling: 4:2:0\r\nBit depth: 8 bits\r\nScan type: Progressive\r\nBits/(Pixel*Frame): 0.028\r\nStream size: 257 MiB (85%)\r\nColor range: Limited\r\nColor primaries: BT.709\r\nTransfer characteristics: BT.709\r\nMatrix coefficients: BT.709\r\nCodec configuration box: avcC\r\n\r\nAudio\r\nID: 2\r\nFormat: AAC LC\r\nFormat/Info: Advanced Audio Codec Low Complexity\r\nCodec ID: mp4a-40-2\r\nDuration: 46 min 57 s\r\nBit rate mode: Constant\r\nBit rate: 126 kb/s\r\nChannel(s): 2 channels\r\nChannel layout: L R\r\nSampling rate: 44.1 kHz\r\nFrame rate: 43.066 FPS (1024 SPF)\r\nCompression mode: Lossy\r\nStream size: 42.4 MiB (14%)\r\nDefault: Yes\r\nAlternate group: 1","last_updated":"2018-10-15T12:27:51.737Z","parsed":{"xt":"urn:btih:1d2210ccfa4e9b233409f3f24abe623c788b1397","dn":"The.Noite.2018.10.12.720p.WEB-DL.x264-Skylane77","tr":["udp://exodus.desync.com:6969","udp://open.demonii.com:1337","udp://tracker.coppersurfer.tk:6969","udp://tracker.leechers-paradise.org:6969","udp://zer0day.ch:1337"],"infoHash":"1d2210ccfa4e9b233409f3f24abe623c788b1397","infoHashBuffer":{"type":"Buffer","data":[29,34,16,204,250,78,155,35,52,9,243,242,74,190,98,60,120,139,19,151]},"name":"The.Noite.2018.10.12.720p.WEB-DL.x264-Skylane77","announce":["udp://exodus.desync.com:6969","udp://open.demonii.com:1337","udp://tracker.coppersurfer.tk:6969","udp://tracker.leechers-paradise.org:6969","udp://zer0day.ch:1337"],"urlList":[]}}